<?xml version="1.0" encoding="UTF-8" standalone="no"?>
<svg width="43px" height="19px" viewBox="0 0 43 19" version="1.1" xmlns="http://www.w3.org/2000/svg" xmlns:xlink="http://www.w3.org/1999/xlink" xmlns:sketch="http://www.bohemiancoding.com/sketch/ns">
    <!-- Generator: Sketch 3.3.3 (12081) - http://www.bohemiancoding.com/sketch -->
    <title>arrow-left-large</title>
    <desc>Created with Sketch.</desc>
    <defs></defs>
    <g id="City" stroke="none" stroke-width="1" fill="none" fill-rule="evenodd" sketch:type="MSPage">
        <g id="City:-Mobile" sketch:type="MSArtboardGroup" transform="translate(-12.000000, -101.000000)" fill="#2F2919">
            <g id="Header" sketch:type="MSLayerGroup" transform="translate(12.000000, 89.000000)">
                <g id="arrow-left-large" sketch:type="MSShapeGroup">
                    <path d="M6.33564594,35.3910599 C6.33564594,36.1649835 6.97469423,36.7923725 7.76300025,36.7923725 L19.1818348,36.7923725 C19.9701408,36.7923725 20.6091891,36.1649835 20.6091891,35.3910599 C20.6091891,34.6171364 19.9701408,33.9897474 19.1818348,33.9897474 L9.19035461,33.9897476 L9.19035456,24.1805594 C9.19035456,23.4066359 8.55130627,22.7792469 7.76300025,22.7792469 C6.97469423,22.7792469 6.33564594,23.4066359 6.33564594,24.1805594 L6.33564594,35.3910599 Z M36.0947632,6.79040707 C35.5373466,6.23299053 34.6343614,6.23222495 34.0759633,6.79062309 L11.3230388,29.5435476 C10.765503,30.1010834 10.76152,31.0010447 11.3228228,31.5623474 C11.8802393,32.119764 12.7832245,32.1205296 13.3416226,31.5621314 L36.0945471,8.80920692 C36.652083,8.25167108 36.6560659,7.3517098 36.0947632,6.79040707 Z" id="Back-Arrow" transform="translate(21.424934, 21.582229) scale(-1, 1) rotate(-135.000000) translate(-21.424934, -21.582229) "></path>
                </g>
            </g>
        </g>
    </g>
</svg>