<svg width="28" height="28" viewBox="0 0 28 28" xmlns="http://www.w3.org/2000/svg"><title>mark-github-brown</title><path d="M14 0C6.27 0 0 6.428 0 14.354c0 6.344 4.01 11.72 9.576 13.62.697.13.957-.31.957-.69 0-.342-.017-1.475-.022-2.672-3.518.648-4.42-.894-4.713-1.707-.156-.415-.837-1.688-1.438-2.027-.494-.275-1.185-.925-.03-.945 1.11-.014 1.9 1.046 2.15 1.48 1.258 2.182 3.282 1.562 4.075 1.195.128-.926.492-1.562.89-1.918-3.108-.364-6.378-1.598-6.378-7.093 0-1.57.547-2.848 1.44-3.855-.14-.364-.623-1.828.138-3.804 0 0 1.175-.38 3.855 1.477 1.113-.32 2.31-.476 3.5-.482 1.19.006 2.387.168 3.505.485 2.675-1.853 3.85-1.466 3.85-1.466.766 1.982.274 3.44.137 3.804.897 1.004 1.438 2.282 1.438 3.85 0 5.514-3.273 6.728-6.392 7.084.503.45.95 1.318.95 2.655 0 1.92-.018 3.468-.018 3.94 0 .383.246.83.957.69C23.987 26.072 28 20.69 28 14.354 28 6.427 21.73 0 14 0z" fill="#8F6130" fill-rule="evenodd"/></svg>