<svg xmlns="http://www.w3.org/2000/svg" width="1024" height="1024"><path d="M512 0C229.3 0 0 229.3 0 512c0 226.3 146.7 418 350.2 485.8 25.5 4.7 35-11 35-24.6 0-12.2-.6-52.6-.8-95.3C255.7 901 222.7 846 212 817c-5.7-14.8-30.6-60.2-52.6-72.3-18-9.8-43.3-33-1-33.7 40.5-.5 69.4 37.3 78.6 52.8 46 77.8 120 55.7 149 42.6 4.7-33 18-55.7 32.6-68.4-113.7-13-233.3-57-233.3-253 0-56 20-101.6 52.7-137.5-5.2-13-22.8-65.2 5-135.7 0 0 43-13.5 141 52.7 40.7-11.4 84.5-17 128-17.2 43.5.2 87.3 6 128.2 17.3C738 198.5 781 212.3 781 212.3 809 283 791 335 786 348c32.8 35.8 52.6 81.4 52.6 137.3 0 196.7-119.7 240-233.8 252.7 18.4 16 34.8 47 34.8 94.7 0 68.5-.7 123.7-.7 140.5 0 13.7 9 29.6 35 24.6C877.2 930 1024 738 1024 512 1024 229.3 794.7 0 512 0z"/></svg>